<svg width="280" height="395" viewBox="0 0 280 395" fill="none" xmlns="http://www.w3.org/2000/svg">
<path d="M0 20C0 8.9543 8.95431 0 20 0L260 0C271.046 0 280 8.9543 280 20V375C280 386.046 271.046 395 260 395H20C8.95431 395 0 386.046 0 375L0 20Z" fill="url(#paint0_linear)"/>
<path d="M20 1L260 1V-1L20 -1V1ZM279 20V375H281V20H279ZM260 394H20V396H260V394ZM1 375L1 20H-1L-1 375H1ZM20 394C9.5066 394 1 385.493 1 375H-1C-1 386.598 8.40203 396 20 396V394ZM279 375C279 385.493 270.493 394 260 394V396C271.598 396 281 386.598 281 375H279ZM260 1C270.493 1 279 9.50659 279 20H281C281 8.40202 271.598 -1 260 -1V1ZM20 -1C8.40202 -1 -1 8.40201 -1 20H1C1 9.50658 9.50659 1 20 1V-1Z" fill="#D2D2D2"/>
<path fill-rule="evenodd" clip-rule="evenodd" d="M152 162H127C119.268 162 113 168.268 113 176V220C113 227.732 119.268 234 127 234H152C159.732 234 166 227.732 166 220V176C166 168.268 159.732 162 152 162ZM117 176C117 170.477 121.477 166 127 166H152C157.523 166 162 170.477 162 176V220C162 225.523 157.523 230 152 230H127C121.477 230 117 225.523 117 220V176ZM128.922 190.844V181.454H131.124V191.021C131.124 194.075 128.83 196.241 125.343 196.241C121.856 196.241 119.569 194.075 119.569 191.021V181.454H121.763V190.844C121.763 192.818 123.134 194.238 125.343 194.238C127.559 194.238 128.922 192.818 128.922 190.844ZM142.882 181.454H145.055V196H143.038L135.644 185.332H135.509V196H133.315V181.454H135.346L142.747 192.136H142.882V181.454ZM153.343 181.255C157.107 181.255 159.891 184.075 159.891 188.727C159.891 193.379 157.107 196.199 153.343 196.199C149.564 196.199 146.787 193.372 146.787 188.727C146.787 184.075 149.564 181.255 153.343 181.255ZM153.343 194.196C155.843 194.196 157.718 192.271 157.718 188.727C157.718 185.183 155.843 183.258 153.343 183.258C150.836 183.258 148.968 185.183 148.968 188.727C148.968 192.271 150.836 194.196 153.343 194.196ZM134.886 213.281L125.454 208.707V207.116L134.886 202.542V204.709L127.989 207.855V207.969L134.886 211.108V213.281ZM140.899 199.772H142.795L138.108 217.187H136.212L140.899 199.772ZM153.55 208.48V210.071L144.118 214.645V212.471L151.007 209.339V209.211L144.118 206.072V203.906L153.55 208.48Z" fill="url(#paint1_angular)"/>
<defs>
<linearGradient id="paint0_linear" x1="14" y1="8.14068e-07" x2="275.921" y2="394.389" gradientUnits="userSpaceOnUse">
<stop stop-color="#53565B"/>
<stop offset="1" stop-color="#262D3D"/>
</linearGradient>
<radialGradient id="paint1_angular" cx="0" cy="0" r="1" gradientUnits="userSpaceOnUse" gradientTransform="translate(136.469 194.864) rotate(90) scale(39.1364 29.531)">
<stop stop-color="#F5BB6E"/>
<stop offset="0.244792" stop-color="#EC606C"/>
<stop offset="0.364583" stop-color="#EC606C"/>
<stop offset="0.557292" stop-color="#4364EF"/>
<stop offset="0.692708" stop-color="#4364EF"/>
<stop offset="0.833333" stop-color="#41D589"/>
<stop offset="0.942708" stop-color="#41D589"/>
</radialGradient>
</defs>
</svg>
