<svg width="53" height="72" viewBox="0 0 53 72" fill="none" xmlns="http://www.w3.org/2000/svg">
<path fill-rule="evenodd" clip-rule="evenodd" d="M39 0H14C6.26801 0 0 6.26801 0 14V58C0 65.732 6.26801 72 14 72H39C46.732 72 53 65.732 53 58V14C53 6.26801 46.732 0 39 0ZM4 14C4 8.47715 8.47715 4 14 4H39C44.5228 4 49 8.47715 49 14V58C49 63.5228 44.5228 68 39 68H14C8.47715 68 4 63.5228 4 58V14ZM15.9224 28.8435V19.4543H18.1241V29.0211C18.1241 32.075 15.8301 34.2412 12.3429 34.2412C8.85565 34.2412 6.56871 32.075 6.56871 29.0211V19.4543H8.76332V28.8435C8.76332 30.8179 10.1341 32.2384 12.3429 32.2384C14.5588 32.2384 15.9224 30.8179 15.9224 28.8435ZM29.8816 19.4543H32.0549V33.9998H30.0378L22.6444 23.3321H22.5094V33.9998H20.3148V19.4543H22.3461L29.7466 30.1361H29.8816V19.4543ZM40.3429 19.2554C44.1071 19.2554 46.8912 22.075 46.8912 26.727C46.8912 31.379 44.1071 34.1986 40.3429 34.1986C36.5645 34.1986 33.7875 31.3719 33.7875 26.727C33.7875 22.075 36.5645 19.2554 40.3429 19.2554ZM40.3429 32.1958C42.8429 32.1958 44.7179 30.2711 44.7179 26.727C44.7179 23.183 42.8429 21.2583 40.3429 21.2583C37.8358 21.2583 35.9679 23.183 35.9679 26.727C35.9679 30.2711 37.8358 32.1958 40.3429 32.1958ZM21.8857 51.281L12.4538 46.7071V45.1162L21.8857 40.5424V42.7086L14.9893 45.8549V45.9685L21.8857 49.1077V51.281ZM27.8991 37.7725H29.7955L25.108 55.1873H23.2116L27.8991 37.7725ZM40.5497 46.4799V48.0708L31.1179 52.6446V50.4713L38.0071 47.3392V47.2114L31.1179 44.0722V41.906L40.5497 46.4799Z" fill="url(#paint0_angular)"/>
<defs>
<radialGradient id="paint0_angular" cx="0" cy="0" r="1" gradientUnits="userSpaceOnUse" gradientTransform="translate(23.469 32.8636) rotate(90) scale(39.1364 29.531)">
<stop stop-color="#F5BB6E"/>
<stop offset="0.244792" stop-color="#EC606C"/>
<stop offset="0.364583" stop-color="#EC606C"/>
<stop offset="0.557292" stop-color="#4364EF"/>
<stop offset="0.692708" stop-color="#4364EF"/>
<stop offset="0.833333" stop-color="#41D589"/>
<stop offset="0.942708" stop-color="#41D589"/>
</radialGradient>
</defs>
</svg>
